<?xml version="1.0" encoding="utf-8" standalone="no"?>
<!DOCTYPE svg PUBLIC "-//W3C//DTD SVG 1.1//EN"
  "http://www.w3.org/Graphics/SVG/1.1/DTD/svg11.dtd">
<svg xmlns:xlink="http://www.w3.org/1999/xlink" width="720pt" height="432pt" viewBox="0 0 720 432" xmlns="http://www.w3.org/2000/svg" version="1.1">
 <metadata>
  <rdf:RDF xmlns:dc="http://purl.org/dc/elements/1.1/" xmlns:cc="http://creativecommons.org/ns#" xmlns:rdf="http://www.w3.org/1999/02/22-rdf-syntax-ns#">
   <cc:Work>
    <dc:type rdf:resource="http://purl.org/dc/dcmitype/StillImage"/>
    <dc:date>2025-04-05T14:40:07.646028</dc:date>
    <dc:format>image/svg+xml</dc:format>
    <dc:creator>
     <cc:Agent>
      <dc:title>Matplotlib v3.10.0, https://matplotlib.org/</dc:title>
     </cc:Agent>
    </dc:creator>
   </cc:Work>
  </rdf:RDF>
 </metadata>
 <defs>
  <style type="text/css">*{stroke-linejoin: round; stroke-linecap: butt}</style>
 </defs>
 <g id="figure_1">
  <g id="patch_1">
   <path d="M 0 432 
L 720 432 
L 720 0 
L 0 0 
z
" style="fill: #ffffff"/>
  </g>
  <g id="axes_1">
   <g id="patch_2">
    <path d="M 252.199957 57.836364 
C 213.000688 57.836364 175.167712 72.409079 146.09745 98.705516 
C 117.027188 125.001953 98.746132 161.188982 94.828265 200.19197 
L 252.199957 216.000026 
z
" style="fill: #3182bd; stroke: #ffffff; stroke-width: 0.5; stroke-linejoin: miter"/>
   </g>
   <g id="patch_3">
    <path d="M 94.828262 200.191951 
C 92.077342 227.577799 96.522007 255.213197 107.721145 280.355423 
C 118.920284 305.497654 136.490714 327.286457 158.688604 343.559315 
L 252.199957 216.000026 
z
" style="fill: #6baed6; stroke: #ffffff; stroke-width: 0.5; stroke-linejoin: miter"/>
   </g>
   <g id="patch_4">
    <path d="M 158.688604 343.559315 
C 175.270861 355.715465 194.065538 364.522344 214.018153 369.48584 
C 233.970767 374.449335 254.70108 375.474893 275.046169 372.504957 
L 252.199957 216.000026 
z
" style="fill: #9ecae1; stroke: #ffffff; stroke-width: 0.5; stroke-linejoin: miter"/>
   </g>
   <g id="patch_5">
    <path d="M 275.046169 372.504957 
C 286.871838 370.77867 298.46384 367.71761 309.600047 363.380397 
C 320.736253 359.043185 331.345083 353.457733 341.223251 346.731041 
L 252.199957 216.000026 
z
" style="fill: #c6dbef; stroke: #ffffff; stroke-width: 0.5; stroke-linejoin: miter"/>
   </g>
   <g id="patch_6">
    <path d="M 341.223251 346.731041 
C 349.372416 341.181743 356.984924 334.88257 363.96124 327.915889 
C 370.937557 320.949207 377.247194 313.345476 382.807758 305.203985 
L 252.199957 216.000026 
z
" style="fill: #e6550d; stroke: #ffffff; stroke-width: 0.5; stroke-linejoin: miter"/>
   </g>
   <g id="patch_7">
    <path d="M 382.807758 305.203985 
C 388.104574 297.448663 392.700123 289.236967 396.539914 280.666251 
C 400.379706 272.095534 403.448515 263.199822 405.709923 254.084605 
L 252.199957 216.000026 
z
" style="fill: #fd8d3c; stroke: #ffffff; stroke-width: 0.5; stroke-linejoin: miter"/>
   </g>
   <g id="patch_8">
    <path d="M 405.709923 254.084605 
C 407.824342 245.561897 409.225322 236.877924 409.898355 228.122678 
C 410.571397 219.367432 410.514136 210.571285 409.727183 201.825542 
L 252.199957 216.000026 
z
" style="fill: #fdae6b; stroke: #ffffff; stroke-width: 0.5; stroke-linejoin: miter"/>
   </g>
   <g id="patch_9">
    <path d="M 409.727183 201.825542 
C 408.996436 193.704455 407.638775 185.651988 405.66635 177.740251 
C 403.693926 169.828516 401.112649 162.08118 397.94558 154.567475 
L 252.199957 216.000026 
z
" style="fill: #fdd0a2; stroke: #ffffff; stroke-width: 0.5; stroke-linejoin: miter"/>
   </g>
   <g id="patch_10">
    <path d="M 397.94558 154.567475 
C 395.244784 148.159973 392.12438 141.937543 388.604683 135.940698 
C 385.084985 129.943858 381.173641 124.185642 376.896141 118.703551 
L 252.199957 216.000026 
z
" style="fill: #31a354; stroke: #ffffff; stroke-width: 0.5; stroke-linejoin: miter"/>
   </g>
   <g id="patch_11">
    <path d="M 376.896141 118.703551 
C 373.385013 114.203661 369.632905 109.897143 365.656239 105.802862 
C 361.679572 101.708581 357.484165 97.832532 353.088484 94.191779 
L 252.199957 216.000026 
z
" style="fill: #74c476; stroke: #ffffff; stroke-width: 0.5; stroke-linejoin: miter"/>
   </g>
   <g id="patch_12">
    <path d="M 353.088484 94.191779 
C 349.14734 90.927505 345.050099 87.856424 340.811213 84.989379 
C 336.572326 82.122333 332.196792 79.462706 327.700045 77.019878 
L 252.199957 216.000026 
z
" style="fill: #a1d99b; stroke: #ffffff; stroke-width: 0.5; stroke-linejoin: miter"/>
   </g>
   <g id="patch_13">
    <path d="M 327.700045 77.019878 
C 324.438807 75.248227 321.116215 73.591918 317.738451 72.054026 
C 314.360686 70.516133 310.929827 69.097609 307.452265 67.801083 
L 252.199957 216.000026 
z
" style="fill: #c7e9c0; stroke: #ffffff; stroke-width: 0.5; stroke-linejoin: miter"/>
   </g>
   <g id="patch_14">
    <path d="M 307.452265 67.801083 
C 305.415353 67.041668 303.362966 66.324327 301.296481 65.649522 
C 299.229996 64.974716 297.14986 64.342598 295.057318 63.753543 
L 252.199957 216.000026 
z
" style="fill: #756bb1; stroke: #ffffff; stroke-width: 0.5; stroke-linejoin: miter"/>
   </g>
   <g id="patch_15">
    <path d="M 295.057318 63.753543 
C 293.418544 63.292228 291.772459 62.857413 290.119645 62.449249 
C 288.466832 62.041085 286.807497 61.65962 285.142367 61.305031 
L 252.199957 216.000026 
z
" style="fill: #9e9ac8; stroke: #ffffff; stroke-width: 0.5; stroke-linejoin: miter"/>
   </g>
   <g id="patch_16">
    <path d="M 285.142367 61.305031 
C 283.550783 60.966101 281.954102 60.651767 280.352818 60.362113 
C 278.751535 60.07246 277.145836 59.807525 275.536376 59.567431 
L 252.199957 216.000026 
z
" style="fill: #bcbddc; stroke: #ffffff; stroke-width: 0.5; stroke-linejoin: miter"/>
   </g>
   <g id="patch_17">
    <path d="M 275.536376 59.567431 
C 274.58418 59.42538 273.630742 59.292041 272.676111 59.167403 
C 271.721479 59.042764 270.765692 58.926846 269.808944 58.819658 
L 252.199957 216.000026 
z
" style="fill: #dadaeb; stroke: #ffffff; stroke-width: 0.5; stroke-linejoin: miter"/>
   </g>
   <g id="patch_18">
    <path d="M 269.808944 58.819658 
C 269.116133 58.742043 268.422818 58.66901 267.729042 58.600559 
C 267.035267 58.532107 266.341046 58.468256 265.646426 58.408987 
L 252.199957 216.000026 
z
" style="fill: #636363; stroke: #ffffff; stroke-width: 0.5; stroke-linejoin: miter"/>
   </g>
   <g id="patch_19">
    <path d="M 265.646426 58.408987 
C 265.130929 58.364999 264.615217 58.323547 264.099313 58.284622 
C 263.58341 58.245697 263.067316 58.209307 262.551054 58.175444 
L 252.199957 216.000026 
z
" style="fill: #969696; stroke: #ffffff; stroke-width: 0.5; stroke-linejoin: miter"/>
   </g>
   <g id="patch_20">
    <path d="M 262.551054 58.175444 
C 262.05604 58.142977 261.560876 58.112847 261.065579 58.085037 
C 260.570281 58.057226 260.074856 58.031754 259.579319 58.00861 
L 252.199957 216.000026 
z
" style="fill: #bdbdbd; stroke: #ffffff; stroke-width: 0.5; stroke-linejoin: miter"/>
   </g>
   <g id="patch_21">
    <path d="M 259.579319 58.00861 
C 259.158616 57.988963 258.737836 57.970985 258.31699 57.954695 
C 257.896143 57.938405 257.475233 57.923802 257.054271 57.910877 
L 252.199957 216.000026 
z
" style="fill: #d9d9d9; stroke: #ffffff; stroke-width: 0.5; stroke-linejoin: miter"/>
   </g>
   <g id="patch_22">
    <path d="M 257.054271 57.910877 
C 256.710701 57.900328 256.367097 57.890891 256.023466 57.882586 
C 255.679835 57.87428 255.336177 57.867087 254.992499 57.861016 
L 252.199957 216.000026 
z
" style="fill: #3182bd; stroke: #ffffff; stroke-width: 0.5; stroke-linejoin: miter"/>
   </g>
   <g id="patch_23">
    <path d="M 254.992499 57.861016 
C 254.73731 57.85651 254.482149 57.852626 254.226941 57.849354 
C 253.971734 57.846083 253.716482 57.843425 253.461261 57.841388 
L 252.199957 216.000026 
z
" style="fill: #6baed6; stroke: #ffffff; stroke-width: 0.5; stroke-linejoin: miter"/>
   </g>
   <g id="patch_24">
    <path d="M 253.461261 57.841388 
C 253.370989 57.840672 253.280715 57.840031 253.190441 57.839465 
C 253.100167 57.8389 253.009893 57.838419 252.919618 57.838004 
L 252.199957 216.000026 
z
" style="fill: #9ecae1; stroke: #ffffff; stroke-width: 0.5; stroke-linejoin: miter"/>
   </g>
   <g id="patch_25">
    <path d="M 252.919618 57.838004 
C 252.855828 57.837712 252.792074 57.837467 252.728283 57.83725 
C 252.664492 57.837033 252.600664 57.836854 252.536872 57.836722 
L 252.199957 216.000026 
z
" style="fill: #c6dbef; stroke: #ffffff; stroke-width: 0.5; stroke-linejoin: miter"/>
   </g>
   <g id="patch_26">
    <path d="M 252.536872 57.836722 
C 252.480736 57.836599 252.4246 57.836514 252.368464 57.836458 
C 252.312327 57.836401 252.256191 57.836364 252.200055 57.836364 
L 252.199957 216.000026 
z
" style="fill: #e6550d; stroke: #ffffff; stroke-width: 0.5; stroke-linejoin: miter"/>
   </g>
   <g id="matplotlib.axis_1"/>
   <g id="matplotlib.axis_2"/>
   <g id="text_1">
    <!-- Category Distribution with Percentages -->
    <g transform="translate(134.466875 36.02) scale(0.12 -0.12)">
     <defs>
      <path id="DejaVuSans-43" d="M 4122 4306 
L 4122 3641 
Q 3803 3938 3442 4084 
Q 3081 4231 2675 4231 
Q 1875 4231 1450 3742 
Q 1025 3253 1025 2328 
Q 1025 1406 1450 917 
Q 1875 428 2675 428 
Q 3081 428 3442 575 
Q 3803 722 4122 1019 
L 4122 359 
Q 3791 134 3420 21 
Q 3050 -91 2638 -91 
Q 1578 -91 968 557 
Q 359 1206 359 2328 
Q 359 3453 968 4101 
Q 1578 4750 2638 4750 
Q 3056 4750 3426 4639 
Q 3797 4528 4122 4306 
z
" transform="scale(0.015625)"/>
      <path id="DejaVuSans-61" d="M 2194 1759 
Q 1497 1759 1228 1600 
Q 959 1441 959 1056 
Q 959 750 1161 570 
Q 1363 391 1709 391 
Q 2188 391 2477 730 
Q 2766 1069 2766 1631 
L 2766 1759 
L 2194 1759 
z
M 3341 1997 
L 3341 0 
L 2766 0 
L 2766 531 
Q 2569 213 2275 61 
Q 1981 -91 1556 -91 
Q 1019 -91 701 211 
Q 384 513 384 1019 
Q 384 1609 779 1909 
Q 1175 2209 1959 2209 
L 2766 2209 
L 2766 2266 
Q 2766 2663 2505 2880 
Q 2244 3097 1772 3097 
Q 1472 3097 1187 3025 
Q 903 2953 641 2809 
L 641 3341 
Q 956 3463 1253 3523 
Q 1550 3584 1831 3584 
Q 2591 3584 2966 3190 
Q 3341 2797 3341 1997 
z
" transform="scale(0.015625)"/>
      <path id="DejaVuSans-74" d="M 1172 4494 
L 1172 3500 
L 2356 3500 
L 2356 3053 
L 1172 3053 
L 1172 1153 
Q 1172 725 1289 603 
Q 1406 481 1766 481 
L 2356 481 
L 2356 0 
L 1766 0 
Q 1100 0 847 248 
Q 594 497 594 1153 
L 594 3053 
L 172 3053 
L 172 3500 
L 594 3500 
L 594 4494 
L 1172 4494 
z
" transform="scale(0.015625)"/>
      <path id="DejaVuSans-65" d="M 3597 1894 
L 3597 1613 
L 953 1613 
Q 991 1019 1311 708 
Q 1631 397 2203 397 
Q 2534 397 2845 478 
Q 3156 559 3463 722 
L 3463 178 
Q 3153 47 2828 -22 
Q 2503 -91 2169 -91 
Q 1331 -91 842 396 
Q 353 884 353 1716 
Q 353 2575 817 3079 
Q 1281 3584 2069 3584 
Q 2775 3584 3186 3129 
Q 3597 2675 3597 1894 
z
M 3022 2063 
Q 3016 2534 2758 2815 
Q 2500 3097 2075 3097 
Q 1594 3097 1305 2825 
Q 1016 2553 972 2059 
L 3022 2063 
z
" transform="scale(0.015625)"/>
      <path id="DejaVuSans-67" d="M 2906 1791 
Q 2906 2416 2648 2759 
Q 2391 3103 1925 3103 
Q 1463 3103 1205 2759 
Q 947 2416 947 1791 
Q 947 1169 1205 825 
Q 1463 481 1925 481 
Q 2391 481 2648 825 
Q 2906 1169 2906 1791 
z
M 3481 434 
Q 3481 -459 3084 -895 
Q 2688 -1331 1869 -1331 
Q 1566 -1331 1297 -1286 
Q 1028 -1241 775 -1147 
L 775 -588 
Q 1028 -725 1275 -790 
Q 1522 -856 1778 -856 
Q 2344 -856 2625 -561 
Q 2906 -266 2906 331 
L 2906 616 
Q 2728 306 2450 153 
Q 2172 0 1784 0 
Q 1141 0 747 490 
Q 353 981 353 1791 
Q 353 2603 747 3093 
Q 1141 3584 1784 3584 
Q 2172 3584 2450 3431 
Q 2728 3278 2906 2969 
L 2906 3500 
L 3481 3500 
L 3481 434 
z
" transform="scale(0.015625)"/>
      <path id="DejaVuSans-6f" d="M 1959 3097 
Q 1497 3097 1228 2736 
Q 959 2375 959 1747 
Q 959 1119 1226 758 
Q 1494 397 1959 397 
Q 2419 397 2687 759 
Q 2956 1122 2956 1747 
Q 2956 2369 2687 2733 
Q 2419 3097 1959 3097 
z
M 1959 3584 
Q 2709 3584 3137 3096 
Q 3566 2609 3566 1747 
Q 3566 888 3137 398 
Q 2709 -91 1959 -91 
Q 1206 -91 779 398 
Q 353 888 353 1747 
Q 353 2609 779 3096 
Q 1206 3584 1959 3584 
z
" transform="scale(0.015625)"/>
      <path id="DejaVuSans-72" d="M 2631 2963 
Q 2534 3019 2420 3045 
Q 2306 3072 2169 3072 
Q 1681 3072 1420 2755 
Q 1159 2438 1159 1844 
L 1159 0 
L 581 0 
L 581 3500 
L 1159 3500 
L 1159 2956 
Q 1341 3275 1631 3429 
Q 1922 3584 2338 3584 
Q 2397 3584 2469 3576 
Q 2541 3569 2628 3553 
L 2631 2963 
z
" transform="scale(0.015625)"/>
      <path id="DejaVuSans-79" d="M 2059 -325 
Q 1816 -950 1584 -1140 
Q 1353 -1331 966 -1331 
L 506 -1331 
L 506 -850 
L 844 -850 
Q 1081 -850 1212 -737 
Q 1344 -625 1503 -206 
L 1606 56 
L 191 3500 
L 800 3500 
L 1894 763 
L 2988 3500 
L 3597 3500 
L 2059 -325 
z
" transform="scale(0.015625)"/>
      <path id="DejaVuSans-20" transform="scale(0.015625)"/>
      <path id="DejaVuSans-44" d="M 1259 4147 
L 1259 519 
L 2022 519 
Q 2988 519 3436 956 
Q 3884 1394 3884 2338 
Q 3884 3275 3436 3711 
Q 2988 4147 2022 4147 
L 1259 4147 
z
M 628 4666 
L 1925 4666 
Q 3281 4666 3915 4102 
Q 4550 3538 4550 2338 
Q 4550 1131 3912 565 
Q 3275 0 1925 0 
L 628 0 
L 628 4666 
z
" transform="scale(0.015625)"/>
      <path id="DejaVuSans-69" d="M 603 3500 
L 1178 3500 
L 1178 0 
L 603 0 
L 603 3500 
z
M 603 4863 
L 1178 4863 
L 1178 4134 
L 603 4134 
L 603 4863 
z
" transform="scale(0.015625)"/>
      <path id="DejaVuSans-73" d="M 2834 3397 
L 2834 2853 
Q 2591 2978 2328 3040 
Q 2066 3103 1784 3103 
Q 1356 3103 1142 2972 
Q 928 2841 928 2578 
Q 928 2378 1081 2264 
Q 1234 2150 1697 2047 
L 1894 2003 
Q 2506 1872 2764 1633 
Q 3022 1394 3022 966 
Q 3022 478 2636 193 
Q 2250 -91 1575 -91 
Q 1294 -91 989 -36 
Q 684 19 347 128 
L 347 722 
Q 666 556 975 473 
Q 1284 391 1588 391 
Q 1994 391 2212 530 
Q 2431 669 2431 922 
Q 2431 1156 2273 1281 
Q 2116 1406 1581 1522 
L 1381 1569 
Q 847 1681 609 1914 
Q 372 2147 372 2553 
Q 372 3047 722 3315 
Q 1072 3584 1716 3584 
Q 2034 3584 2315 3537 
Q 2597 3491 2834 3397 
z
" transform="scale(0.015625)"/>
      <path id="DejaVuSans-62" d="M 3116 1747 
Q 3116 2381 2855 2742 
Q 2594 3103 2138 3103 
Q 1681 3103 1420 2742 
Q 1159 2381 1159 1747 
Q 1159 1113 1420 752 
Q 1681 391 2138 391 
Q 2594 391 2855 752 
Q 3116 1113 3116 1747 
z
M 1159 2969 
Q 1341 3281 1617 3432 
Q 1894 3584 2278 3584 
Q 2916 3584 3314 3078 
Q 3713 2572 3713 1747 
Q 3713 922 3314 415 
Q 2916 -91 2278 -91 
Q 1894 -91 1617 61 
Q 1341 213 1159 525 
L 1159 0 
L 581 0 
L 581 4863 
L 1159 4863 
L 1159 2969 
z
" transform="scale(0.015625)"/>
      <path id="DejaVuSans-75" d="M 544 1381 
L 544 3500 
L 1119 3500 
L 1119 1403 
Q 1119 906 1312 657 
Q 1506 409 1894 409 
Q 2359 409 2629 706 
Q 2900 1003 2900 1516 
L 2900 3500 
L 3475 3500 
L 3475 0 
L 2900 0 
L 2900 538 
Q 2691 219 2414 64 
Q 2138 -91 1772 -91 
Q 1169 -91 856 284 
Q 544 659 544 1381 
z
M 1991 3584 
L 1991 3584 
z
" transform="scale(0.015625)"/>
      <path id="DejaVuSans-6e" d="M 3513 2113 
L 3513 0 
L 2938 0 
L 2938 2094 
Q 2938 2591 2744 2837 
Q 2550 3084 2163 3084 
Q 1697 3084 1428 2787 
Q 1159 2491 1159 1978 
L 1159 0 
L 581 0 
L 581 3500 
L 1159 3500 
L 1159 2956 
Q 1366 3272 1645 3428 
Q 1925 3584 2291 3584 
Q 2894 3584 3203 3211 
Q 3513 2838 3513 2113 
z
" transform="scale(0.015625)"/>
      <path id="DejaVuSans-77" d="M 269 3500 
L 844 3500 
L 1563 769 
L 2278 3500 
L 2956 3500 
L 3675 769 
L 4391 3500 
L 4966 3500 
L 4050 0 
L 3372 0 
L 2619 2869 
L 1863 0 
L 1184 0 
L 269 3500 
z
" transform="scale(0.015625)"/>
      <path id="DejaVuSans-68" d="M 3513 2113 
L 3513 0 
L 2938 0 
L 2938 2094 
Q 2938 2591 2744 2837 
Q 2550 3084 2163 3084 
Q 1697 3084 1428 2787 
Q 1159 2491 1159 1978 
L 1159 0 
L 581 0 
L 581 4863 
L 1159 4863 
L 1159 2956 
Q 1366 3272 1645 3428 
Q 1925 3584 2291 3584 
Q 2894 3584 3203 3211 
Q 3513 2838 3513 2113 
z
" transform="scale(0.015625)"/>
      <path id="DejaVuSans-50" d="M 1259 4147 
L 1259 2394 
L 2053 2394 
Q 2494 2394 2734 2622 
Q 2975 2850 2975 3272 
Q 2975 3691 2734 3919 
Q 2494 4147 2053 4147 
L 1259 4147 
z
M 628 4666 
L 2053 4666 
Q 2838 4666 3239 4311 
Q 3641 3956 3641 3272 
Q 3641 2581 3239 2228 
Q 2838 1875 2053 1875 
L 1259 1875 
L 1259 0 
L 628 0 
L 628 4666 
z
" transform="scale(0.015625)"/>
      <path id="DejaVuSans-63" d="M 3122 3366 
L 3122 2828 
Q 2878 2963 2633 3030 
Q 2388 3097 2138 3097 
Q 1578 3097 1268 2742 
Q 959 2388 959 1747 
Q 959 1106 1268 751 
Q 1578 397 2138 397 
Q 2388 397 2633 464 
Q 2878 531 3122 666 
L 3122 134 
Q 2881 22 2623 -34 
Q 2366 -91 2075 -91 
Q 1284 -91 818 406 
Q 353 903 353 1747 
Q 353 2603 823 3093 
Q 1294 3584 2113 3584 
Q 2378 3584 2631 3529 
Q 2884 3475 3122 3366 
z
" transform="scale(0.015625)"/>
     </defs>
     <use xlink:href="#DejaVuSans-43"/>
     <use xlink:href="#DejaVuSans-61" transform="translate(69.824219 0)"/>
     <use xlink:href="#DejaVuSans-74" transform="translate(131.103516 0)"/>
     <use xlink:href="#DejaVuSans-65" transform="translate(170.3125 0)"/>
     <use xlink:href="#DejaVuSans-67" transform="translate(231.835938 0)"/>
     <use xlink:href="#DejaVuSans-6f" transform="translate(295.3125 0)"/>
     <use xlink:href="#DejaVuSans-72" transform="translate(356.494141 0)"/>
     <use xlink:href="#DejaVuSans-79" transform="translate(397.607422 0)"/>
     <use xlink:href="#DejaVuSans-20" transform="translate(456.787109 0)"/>
     <use xlink:href="#DejaVuSans-44" transform="translate(488.574219 0)"/>
     <use xlink:href="#DejaVuSans-69" transform="translate(565.576172 0)"/>
     <use xlink:href="#DejaVuSans-73" transform="translate(593.359375 0)"/>
     <use xlink:href="#DejaVuSans-74" transform="translate(645.458984 0)"/>
     <use xlink:href="#DejaVuSans-72" transform="translate(684.667969 0)"/>
     <use xlink:href="#DejaVuSans-69" transform="translate(725.78125 0)"/>
     <use xlink:href="#DejaVuSans-62" transform="translate(753.564453 0)"/>
     <use xlink:href="#DejaVuSans-75" transform="translate(817.041016 0)"/>
     <use xlink:href="#DejaVuSans-74" transform="translate(880.419922 0)"/>
     <use xlink:href="#DejaVuSans-69" transform="translate(919.628906 0)"/>
     <use xlink:href="#DejaVuSans-6f" transform="translate(947.412109 0)"/>
     <use xlink:href="#DejaVuSans-6e" transform="translate(1008.59375 0)"/>
     <use xlink:href="#DejaVuSans-20" transform="translate(1071.972656 0)"/>
     <use xlink:href="#DejaVuSans-77" transform="translate(1103.759766 0)"/>
     <use xlink:href="#DejaVuSans-69" transform="translate(1185.546875 0)"/>
     <use xlink:href="#DejaVuSans-74" transform="translate(1213.330078 0)"/>
     <use xlink:href="#DejaVuSans-68" transform="translate(1252.539062 0)"/>
     <use xlink:href="#DejaVuSans-20" transform="translate(1315.917969 0)"/>
     <use xlink:href="#DejaVuSans-50" transform="translate(1347.705078 0)"/>
     <use xlink:href="#DejaVuSans-65" transform="translate(1404.382812 0)"/>
     <use xlink:href="#DejaVuSans-72" transform="translate(1465.90625 0)"/>
     <use xlink:href="#DejaVuSans-63" transform="translate(1504.769531 0)"/>
     <use xlink:href="#DejaVuSans-65" transform="translate(1559.75 0)"/>
     <use xlink:href="#DejaVuSans-6e" transform="translate(1621.273438 0)"/>
     <use xlink:href="#DejaVuSans-74" transform="translate(1684.652344 0)"/>
     <use xlink:href="#DejaVuSans-61" transform="translate(1723.861328 0)"/>
     <use xlink:href="#DejaVuSans-67" transform="translate(1785.140625 0)"/>
     <use xlink:href="#DejaVuSans-65" transform="translate(1848.617188 0)"/>
     <use xlink:href="#DejaVuSans-73" transform="translate(1910.140625 0)"/>
    </g>
   </g>
   <g id="legend_1">
    <g id="patch_27">
     <path d="M 500.6 408.315625 
L 707.75 408.315625 
Q 709.75 408.315625 709.75 406.315625 
L 709.75 25.684375 
Q 709.75 23.684375 707.75 23.684375 
L 500.6 23.684375 
Q 498.6 23.684375 498.6 25.684375 
L 498.6 406.315625 
Q 498.6 408.315625 500.6 408.315625 
z
" style="fill: #ffffff; opacity: 0.8; stroke: #cccccc; stroke-linejoin: miter"/>
    </g>
    <g id="text_2">
     <!-- Categories -->
     <g transform="translate(577.223438 35.282812) scale(0.1 -0.1)">
      <use xlink:href="#DejaVuSans-43"/>
      <use xlink:href="#DejaVuSans-61" transform="translate(69.824219 0)"/>
      <use xlink:href="#DejaVuSans-74" transform="translate(131.103516 0)"/>
      <use xlink:href="#DejaVuSans-65" transform="translate(170.3125 0)"/>
      <use xlink:href="#DejaVuSans-67" transform="translate(231.835938 0)"/>
      <use xlink:href="#DejaVuSans-6f" transform="translate(295.3125 0)"/>
      <use xlink:href="#DejaVuSans-72" transform="translate(356.494141 0)"/>
      <use xlink:href="#DejaVuSans-69" transform="translate(397.607422 0)"/>
      <use xlink:href="#DejaVuSans-65" transform="translate(425.390625 0)"/>
      <use xlink:href="#DejaVuSans-73" transform="translate(486.914062 0)"/>
     </g>
    </g>
    <g id="patch_28">
     <path d="M 502.6 49.960937 
L 522.6 49.960937 
L 522.6 42.960937 
L 502.6 42.960937 
z
" style="fill: #3182bd; stroke: #ffffff; stroke-width: 0.5; stroke-linejoin: miter"/>
    </g>
    <g id="text_3">
     <!-- LARCENY/THEFT (23.4%) -->
     <g transform="translate(530.6 49.960937) scale(0.1 -0.1)">
      <defs>
       <path id="DejaVuSans-4c" d="M 628 4666 
L 1259 4666 
L 1259 531 
L 3531 531 
L 3531 0 
L 628 0 
L 628 4666 
z
" transform="scale(0.015625)"/>
       <path id="DejaVuSans-41" d="M 2188 4044 
L 1331 1722 
L 3047 1722 
L 2188 4044 
z
M 1831 4666 
L 2547 4666 
L 4325 0 
L 3669 0 
L 3244 1197 
L 1141 1197 
L 716 0 
L 50 0 
L 1831 4666 
z
" transform="scale(0.015625)"/>
       <path id="DejaVuSans-52" d="M 2841 2188 
Q 3044 2119 3236 1894 
Q 3428 1669 3622 1275 
L 4263 0 
L 3584 0 
L 2988 1197 
Q 2756 1666 2539 1819 
Q 2322 1972 1947 1972 
L 1259 1972 
L 1259 0 
L 628 0 
L 628 4666 
L 2053 4666 
Q 2853 4666 3247 4331 
Q 3641 3997 3641 3322 
Q 3641 2881 3436 2590 
Q 3231 2300 2841 2188 
z
M 1259 4147 
L 1259 2491 
L 2053 2491 
Q 2509 2491 2742 2702 
Q 2975 2913 2975 3322 
Q 2975 3731 2742 3939 
Q 2509 4147 2053 4147 
L 1259 4147 
z
" transform="scale(0.015625)"/>
       <path id="DejaVuSans-45" d="M 628 4666 
L 3578 4666 
L 3578 4134 
L 1259 4134 
L 1259 2753 
L 3481 2753 
L 3481 2222 
L 1259 2222 
L 1259 531 
L 3634 531 
L 3634 0 
L 628 0 
L 628 4666 
z
" transform="scale(0.015625)"/>
       <path id="DejaVuSans-4e" d="M 628 4666 
L 1478 4666 
L 3547 763 
L 3547 4666 
L 4159 4666 
L 4159 0 
L 3309 0 
L 1241 3903 
L 1241 0 
L 628 0 
L 628 4666 
z
" transform="scale(0.015625)"/>
       <path id="DejaVuSans-59" d="M -13 4666 
L 666 4666 
L 1959 2747 
L 3244 4666 
L 3922 4666 
L 2272 2222 
L 2272 0 
L 1638 0 
L 1638 2222 
L -13 4666 
z
" transform="scale(0.015625)"/>
       <path id="DejaVuSans-2f" d="M 1625 4666 
L 2156 4666 
L 531 -594 
L 0 -594 
L 1625 4666 
z
" transform="scale(0.015625)"/>
       <path id="DejaVuSans-54" d="M -19 4666 
L 3928 4666 
L 3928 4134 
L 2272 4134 
L 2272 0 
L 1638 0 
L 1638 4134 
L -19 4134 
L -19 4666 
z
" transform="scale(0.015625)"/>
       <path id="DejaVuSans-48" d="M 628 4666 
L 1259 4666 
L 1259 2753 
L 3553 2753 
L 3553 4666 
L 4184 4666 
L 4184 0 
L 3553 0 
L 3553 2222 
L 1259 2222 
L 1259 0 
L 628 0 
L 628 4666 
z
" transform="scale(0.015625)"/>
       <path id="DejaVuSans-46" d="M 628 4666 
L 3309 4666 
L 3309 4134 
L 1259 4134 
L 1259 2759 
L 3109 2759 
L 3109 2228 
L 1259 2228 
L 1259 0 
L 628 0 
L 628 4666 
z
" transform="scale(0.015625)"/>
       <path id="DejaVuSans-28" d="M 1984 4856 
Q 1566 4138 1362 3434 
Q 1159 2731 1159 2009 
Q 1159 1288 1364 580 
Q 1569 -128 1984 -844 
L 1484 -844 
Q 1016 -109 783 600 
Q 550 1309 550 2009 
Q 550 2706 781 3412 
Q 1013 4119 1484 4856 
L 1984 4856 
z
" transform="scale(0.015625)"/>
       <path id="DejaVuSans-32" d="M 1228 531 
L 3431 531 
L 3431 0 
L 469 0 
L 469 531 
Q 828 903 1448 1529 
Q 2069 2156 2228 2338 
Q 2531 2678 2651 2914 
Q 2772 3150 2772 3378 
Q 2772 3750 2511 3984 
Q 2250 4219 1831 4219 
Q 1534 4219 1204 4116 
Q 875 4013 500 3803 
L 500 4441 
Q 881 4594 1212 4672 
Q 1544 4750 1819 4750 
Q 2544 4750 2975 4387 
Q 3406 4025 3406 3419 
Q 3406 3131 3298 2873 
Q 3191 2616 2906 2266 
Q 2828 2175 2409 1742 
Q 1991 1309 1228 531 
z
" transform="scale(0.015625)"/>
       <path id="DejaVuSans-33" d="M 2597 2516 
Q 3050 2419 3304 2112 
Q 3559 1806 3559 1356 
Q 3559 666 3084 287 
Q 2609 -91 1734 -91 
Q 1441 -91 1130 -33 
Q 819 25 488 141 
L 488 750 
Q 750 597 1062 519 
Q 1375 441 1716 441 
Q 2309 441 2620 675 
Q 2931 909 2931 1356 
Q 2931 1769 2642 2001 
Q 2353 2234 1838 2234 
L 1294 2234 
L 1294 2753 
L 1863 2753 
Q 2328 2753 2575 2939 
Q 2822 3125 2822 3475 
Q 2822 3834 2567 4026 
Q 2313 4219 1838 4219 
Q 1578 4219 1281 4162 
Q 984 4106 628 3988 
L 628 4550 
Q 988 4650 1302 4700 
Q 1616 4750 1894 4750 
Q 2613 4750 3031 4423 
Q 3450 4097 3450 3541 
Q 3450 3153 3228 2886 
Q 3006 2619 2597 2516 
z
" transform="scale(0.015625)"/>
       <path id="DejaVuSans-2e" d="M 684 794 
L 1344 794 
L 1344 0 
L 684 0 
L 684 794 
z
" transform="scale(0.015625)"/>
       <path id="DejaVuSans-34" d="M 2419 4116 
L 825 1625 
L 2419 1625 
L 2419 4116 
z
M 2253 4666 
L 3047 4666 
L 3047 1625 
L 3713 1625 
L 3713 1100 
L 3047 1100 
L 3047 0 
L 2419 0 
L 2419 1100 
L 313 1100 
L 313 1709 
L 2253 4666 
z
" transform="scale(0.015625)"/>
       <path id="DejaVuSans-25" d="M 4653 2053 
Q 4381 2053 4226 1822 
Q 4072 1591 4072 1178 
Q 4072 772 4226 539 
Q 4381 306 4653 306 
Q 4919 306 5073 539 
Q 5228 772 5228 1178 
Q 5228 1588 5073 1820 
Q 4919 2053 4653 2053 
z
M 4653 2450 
Q 5147 2450 5437 2106 
Q 5728 1763 5728 1178 
Q 5728 594 5436 251 
Q 5144 -91 4653 -91 
Q 4153 -91 3862 251 
Q 3572 594 3572 1178 
Q 3572 1766 3864 2108 
Q 4156 2450 4653 2450 
z
M 1428 4353 
Q 1159 4353 1004 4120 
Q 850 3888 850 3481 
Q 850 3069 1003 2837 
Q 1156 2606 1428 2606 
Q 1700 2606 1854 2837 
Q 2009 3069 2009 3481 
Q 2009 3884 1853 4118 
Q 1697 4353 1428 4353 
z
M 4250 4750 
L 4750 4750 
L 1831 -91 
L 1331 -91 
L 4250 4750 
z
M 1428 4750 
Q 1922 4750 2215 4408 
Q 2509 4066 2509 3481 
Q 2509 2891 2217 2550 
Q 1925 2209 1428 2209 
Q 931 2209 642 2551 
Q 353 2894 353 3481 
Q 353 4063 643 4406 
Q 934 4750 1428 4750 
z
" transform="scale(0.015625)"/>
       <path id="DejaVuSans-29" d="M 513 4856 
L 1013 4856 
Q 1481 4119 1714 3412 
Q 1947 2706 1947 2009 
Q 1947 1309 1714 600 
Q 1481 -109 1013 -844 
L 513 -844 
Q 928 -128 1133 580 
Q 1338 1288 1338 2009 
Q 1338 2731 1133 3434 
Q 928 4138 513 4856 
z
" transform="scale(0.015625)"/>
      </defs>
      <use xlink:href="#DejaVuSans-4c"/>
      <use xlink:href="#DejaVuSans-41" transform="translate(57.962891 0)"/>
      <use xlink:href="#DejaVuSans-52" transform="translate(126.371094 0)"/>
      <use xlink:href="#DejaVuSans-43" transform="translate(190.853516 0)"/>
      <use xlink:href="#DejaVuSans-45" transform="translate(260.677734 0)"/>
      <use xlink:href="#DejaVuSans-4e" transform="translate(323.861328 0)"/>
      <use xlink:href="#DejaVuSans-59" transform="translate(398.666016 0)"/>
      <use xlink:href="#DejaVuSans-2f" transform="translate(459.75 0)"/>
      <use xlink:href="#DejaVuSans-54" transform="translate(493.441406 0)"/>
      <use xlink:href="#DejaVuSans-48" transform="translate(554.525391 0)"/>
      <use xlink:href="#DejaVuSans-45" transform="translate(629.720703 0)"/>
      <use xlink:href="#DejaVuSans-46" transform="translate(692.904297 0)"/>
      <use xlink:href="#DejaVuSans-54" transform="translate(748.673828 0)"/>
      <use xlink:href="#DejaVuSans-20" transform="translate(809.757812 0)"/>
      <use xlink:href="#DejaVuSans-28" transform="translate(841.544922 0)"/>
      <use xlink:href="#DejaVuSans-32" transform="translate(880.558594 0)"/>
      <use xlink:href="#DejaVuSans-33" transform="translate(944.181641 0)"/>
      <use xlink:href="#DejaVuSans-2e" transform="translate(1007.804688 0)"/>
      <use xlink:href="#DejaVuSans-34" transform="translate(1039.591797 0)"/>
      <use xlink:href="#DejaVuSans-25" transform="translate(1103.214844 0)"/>
      <use xlink:href="#DejaVuSans-29" transform="translate(1198.234375 0)"/>
     </g>
    </g>
    <g id="patch_29">
     <path d="M 502.6 64.639062 
L 522.6 64.639062 
L 522.6 57.639062 
L 502.6 57.639062 
z
" style="fill: #6baed6; stroke: #ffffff; stroke-width: 0.5; stroke-linejoin: miter"/>
    </g>
    <g id="text_4">
     <!-- OTHER OFFENSES (16.5%) -->
     <g transform="translate(530.6 64.639062) scale(0.1 -0.1)">
      <defs>
       <path id="DejaVuSans-4f" d="M 2522 4238 
Q 1834 4238 1429 3725 
Q 1025 3213 1025 2328 
Q 1025 1447 1429 934 
Q 1834 422 2522 422 
Q 3209 422 3611 934 
Q 4013 1447 4013 2328 
Q 4013 3213 3611 3725 
Q 3209 4238 2522 4238 
z
M 2522 4750 
Q 3503 4750 4090 4092 
Q 4678 3434 4678 2328 
Q 4678 1225 4090 567 
Q 3503 -91 2522 -91 
Q 1538 -91 948 565 
Q 359 1222 359 2328 
Q 359 3434 948 4092 
Q 1538 4750 2522 4750 
z
" transform="scale(0.015625)"/>
       <path id="DejaVuSans-53" d="M 3425 4513 
L 3425 3897 
Q 3066 4069 2747 4153 
Q 2428 4238 2131 4238 
Q 1616 4238 1336 4038 
Q 1056 3838 1056 3469 
Q 1056 3159 1242 3001 
Q 1428 2844 1947 2747 
L 2328 2669 
Q 3034 2534 3370 2195 
Q 3706 1856 3706 1288 
Q 3706 609 3251 259 
Q 2797 -91 1919 -91 
Q 1588 -91 1214 -16 
Q 841 59 441 206 
L 441 856 
Q 825 641 1194 531 
Q 1563 422 1919 422 
Q 2459 422 2753 634 
Q 3047 847 3047 1241 
Q 3047 1584 2836 1778 
Q 2625 1972 2144 2069 
L 1759 2144 
Q 1053 2284 737 2584 
Q 422 2884 422 3419 
Q 422 4038 858 4394 
Q 1294 4750 2059 4750 
Q 2388 4750 2728 4690 
Q 3069 4631 3425 4513 
z
" transform="scale(0.015625)"/>
       <path id="DejaVuSans-31" d="M 794 531 
L 1825 531 
L 1825 4091 
L 703 3866 
L 703 4441 
L 1819 4666 
L 2450 4666 
L 2450 531 
L 3481 531 
L 3481 0 
L 794 0 
L 794 531 
z
" transform="scale(0.015625)"/>
       <path id="DejaVuSans-36" d="M 2113 2584 
Q 1688 2584 1439 2293 
Q 1191 2003 1191 1497 
Q 1191 994 1439 701 
Q 1688 409 2113 409 
Q 2538 409 2786 701 
Q 3034 994 3034 1497 
Q 3034 2003 2786 2293 
Q 2538 2584 2113 2584 
z
M 3366 4563 
L 3366 3988 
Q 3128 4100 2886 4159 
Q 2644 4219 2406 4219 
Q 1781 4219 1451 3797 
Q 1122 3375 1075 2522 
Q 1259 2794 1537 2939 
Q 1816 3084 2150 3084 
Q 2853 3084 3261 2657 
Q 3669 2231 3669 1497 
Q 3669 778 3244 343 
Q 2819 -91 2113 -91 
Q 1303 -91 875 529 
Q 447 1150 447 2328 
Q 447 3434 972 4092 
Q 1497 4750 2381 4750 
Q 2619 4750 2861 4703 
Q 3103 4656 3366 4563 
z
" transform="scale(0.015625)"/>
       <path id="DejaVuSans-35" d="M 691 4666 
L 3169 4666 
L 3169 4134 
L 1269 4134 
L 1269 2991 
Q 1406 3038 1543 3061 
Q 1681 3084 1819 3084 
Q 2600 3084 3056 2656 
Q 3513 2228 3513 1497 
Q 3513 744 3044 326 
Q 2575 -91 1722 -91 
Q 1428 -91 1123 -41 
Q 819 9 494 109 
L 494 744 
Q 775 591 1075 516 
Q 1375 441 1709 441 
Q 2250 441 2565 725 
Q 2881 1009 2881 1497 
Q 2881 1984 2565 2268 
Q 2250 2553 1709 2553 
Q 1456 2553 1204 2497 
Q 953 2441 691 2322 
L 691 4666 
z
" transform="scale(0.015625)"/>
      </defs>
      <use xlink:href="#DejaVuSans-4f"/>
      <use xlink:href="#DejaVuSans-54" transform="translate(78.710938 0)"/>
      <use xlink:href="#DejaVuSans-48" transform="translate(139.794922 0)"/>
      <use xlink:href="#DejaVuSans-45" transform="translate(214.990234 0)"/>
      <use xlink:href="#DejaVuSans-52" transform="translate(278.173828 0)"/>
      <use xlink:href="#DejaVuSans-20" transform="translate(347.65625 0)"/>
      <use xlink:href="#DejaVuSans-4f" transform="translate(379.443359 0)"/>
      <use xlink:href="#DejaVuSans-46" transform="translate(458.154297 0)"/>
      <use xlink:href="#DejaVuSans-46" transform="translate(515.673828 0)"/>
      <use xlink:href="#DejaVuSans-45" transform="translate(573.193359 0)"/>
      <use xlink:href="#DejaVuSans-4e" transform="translate(636.376953 0)"/>
      <use xlink:href="#DejaVuSans-53" transform="translate(711.181641 0)"/>
      <use xlink:href="#DejaVuSans-45" transform="translate(774.658203 0)"/>
      <use xlink:href="#DejaVuSans-53" transform="translate(837.841797 0)"/>
      <use xlink:href="#DejaVuSans-20" transform="translate(901.318359 0)"/>
      <use xlink:href="#DejaVuSans-28" transform="translate(933.105469 0)"/>
      <use xlink:href="#DejaVuSans-31" transform="translate(972.119141 0)"/>
      <use xlink:href="#DejaVuSans-36" transform="translate(1035.742188 0)"/>
      <use xlink:href="#DejaVuSans-2e" transform="translate(1099.365234 0)"/>
      <use xlink:href="#DejaVuSans-35" transform="translate(1131.152344 0)"/>
      <use xlink:href="#DejaVuSans-25" transform="translate(1194.775391 0)"/>
      <use xlink:href="#DejaVuSans-29" transform="translate(1289.794922 0)"/>
     </g>
    </g>
    <g id="patch_30">
     <path d="M 502.6 79.317187 
L 522.6 79.317187 
L 522.6 72.317187 
L 502.6 72.317187 
z
" style="fill: #9ecae1; stroke: #ffffff; stroke-width: 0.5; stroke-linejoin: miter"/>
    </g>
    <g id="text_5">
     <!-- NON-CRIMINAL (12.4%) -->
     <g transform="translate(530.6 79.317187) scale(0.1 -0.1)">
      <defs>
       <path id="DejaVuSans-2d" d="M 313 2009 
L 1997 2009 
L 1997 1497 
L 313 1497 
L 313 2009 
z
" transform="scale(0.015625)"/>
       <path id="DejaVuSans-49" d="M 628 4666 
L 1259 4666 
L 1259 0 
L 628 0 
L 628 4666 
z
" transform="scale(0.015625)"/>
       <path id="DejaVuSans-4d" d="M 628 4666 
L 1569 4666 
L 2759 1491 
L 3956 4666 
L 4897 4666 
L 4897 0 
L 4281 0 
L 4281 4097 
L 3078 897 
L 2444 897 
L 1241 4097 
L 1241 0 
L 628 0 
L 628 4666 
z
" transform="scale(0.015625)"/>
      </defs>
      <use xlink:href="#DejaVuSans-4e"/>
      <use xlink:href="#DejaVuSans-4f" transform="translate(74.804688 0)"/>
      <use xlink:href="#DejaVuSans-4e" transform="translate(153.515625 0)"/>
      <use xlink:href="#DejaVuSans-2d" transform="translate(228.320312 0)"/>
      <use xlink:href="#DejaVuSans-43" transform="translate(264.404297 0)"/>
      <use xlink:href="#DejaVuSans-52" transform="translate(334.228516 0)"/>
      <use xlink:href="#DejaVuSans-49" transform="translate(403.710938 0)"/>
      <use xlink:href="#DejaVuSans-4d" transform="translate(433.203125 0)"/>
      <use xlink:href="#DejaVuSans-49" transform="translate(519.482422 0)"/>
      <use xlink:href="#DejaVuSans-4e" transform="translate(548.974609 0)"/>
      <use xlink:href="#DejaVuSans-41" transform="translate(623.779297 0)"/>
      <use xlink:href="#DejaVuSans-4c" transform="translate(692.1875 0)"/>
      <use xlink:href="#DejaVuSans-20" transform="translate(747.900391 0)"/>
      <use xlink:href="#DejaVuSans-28" transform="translate(779.6875 0)"/>
      <use xlink:href="#DejaVuSans-31" transform="translate(818.701172 0)"/>
      <use xlink:href="#DejaVuSans-32" transform="translate(882.324219 0)"/>
      <use xlink:href="#DejaVuSans-2e" transform="translate(945.947266 0)"/>
      <use xlink:href="#DejaVuSans-34" transform="translate(977.734375 0)"/>
      <use xlink:href="#DejaVuSans-25" transform="translate(1041.357422 0)"/>
      <use xlink:href="#DejaVuSans-29" transform="translate(1136.376953 0)"/>
     </g>
    </g>
    <g id="patch_31">
     <path d="M 502.6 93.995312 
L 522.6 93.995312 
L 522.6 86.995312 
L 502.6 86.995312 
z
" style="fill: #c6dbef; stroke: #ffffff; stroke-width: 0.5; stroke-linejoin: miter"/>
    </g>
    <g id="text_6">
     <!-- VEHICLE THEFT (7.2%) -->
     <g transform="translate(530.6 93.995312) scale(0.1 -0.1)">
      <defs>
       <path id="DejaVuSans-56" d="M 1831 0 
L 50 4666 
L 709 4666 
L 2188 738 
L 3669 4666 
L 4325 4666 
L 2547 0 
L 1831 0 
z
" transform="scale(0.015625)"/>
       <path id="DejaVuSans-37" d="M 525 4666 
L 3525 4666 
L 3525 4397 
L 1831 0 
L 1172 0 
L 2766 4134 
L 525 4134 
L 525 4666 
z
" transform="scale(0.015625)"/>
      </defs>
      <use xlink:href="#DejaVuSans-56"/>
      <use xlink:href="#DejaVuSans-45" transform="translate(68.408203 0)"/>
      <use xlink:href="#DejaVuSans-48" transform="translate(131.591797 0)"/>
      <use xlink:href="#DejaVuSans-49" transform="translate(206.787109 0)"/>
      <use xlink:href="#DejaVuSans-43" transform="translate(236.279297 0)"/>
      <use xlink:href="#DejaVuSans-4c" transform="translate(306.103516 0)"/>
      <use xlink:href="#DejaVuSans-45" transform="translate(361.816406 0)"/>
      <use xlink:href="#DejaVuSans-20" transform="translate(425 0)"/>
      <use xlink:href="#DejaVuSans-54" transform="translate(456.787109 0)"/>
      <use xlink:href="#DejaVuSans-48" transform="translate(517.871094 0)"/>
      <use xlink:href="#DejaVuSans-45" transform="translate(593.066406 0)"/>
      <use xlink:href="#DejaVuSans-46" transform="translate(656.25 0)"/>
      <use xlink:href="#DejaVuSans-54" transform="translate(712.019531 0)"/>
      <use xlink:href="#DejaVuSans-20" transform="translate(773.103516 0)"/>
      <use xlink:href="#DejaVuSans-28" transform="translate(804.890625 0)"/>
      <use xlink:href="#DejaVuSans-37" transform="translate(843.904297 0)"/>
      <use xlink:href="#DejaVuSans-2e" transform="translate(907.527344 0)"/>
      <use xlink:href="#DejaVuSans-32" transform="translate(939.314453 0)"/>
      <use xlink:href="#DejaVuSans-25" transform="translate(1002.9375 0)"/>
      <use xlink:href="#DejaVuSans-29" transform="translate(1097.957031 0)"/>
     </g>
    </g>
    <g id="patch_32">
     <path d="M 502.6 108.673437 
L 522.6 108.673437 
L 522.6 101.673437 
L 502.6 101.673437 
z
" style="fill: #e6550d; stroke: #ffffff; stroke-width: 0.5; stroke-linejoin: miter"/>
    </g>
    <g id="text_7">
     <!-- VANDALISM (5.9%) -->
     <g transform="translate(530.6 108.673437) scale(0.1 -0.1)">
      <defs>
       <path id="DejaVuSans-39" d="M 703 97 
L 703 672 
Q 941 559 1184 500 
Q 1428 441 1663 441 
Q 2288 441 2617 861 
Q 2947 1281 2994 2138 
Q 2813 1869 2534 1725 
Q 2256 1581 1919 1581 
Q 1219 1581 811 2004 
Q 403 2428 403 3163 
Q 403 3881 828 4315 
Q 1253 4750 1959 4750 
Q 2769 4750 3195 4129 
Q 3622 3509 3622 2328 
Q 3622 1225 3098 567 
Q 2575 -91 1691 -91 
Q 1453 -91 1209 -44 
Q 966 3 703 97 
z
M 1959 2075 
Q 2384 2075 2632 2365 
Q 2881 2656 2881 3163 
Q 2881 3666 2632 3958 
Q 2384 4250 1959 4250 
Q 1534 4250 1286 3958 
Q 1038 3666 1038 3163 
Q 1038 2656 1286 2365 
Q 1534 2075 1959 2075 
z
" transform="scale(0.015625)"/>
      </defs>
      <use xlink:href="#DejaVuSans-56"/>
      <use xlink:href="#DejaVuSans-41" transform="translate(62.033203 0)"/>
      <use xlink:href="#DejaVuSans-4e" transform="translate(130.441406 0)"/>
      <use xlink:href="#DejaVuSans-44" transform="translate(205.246094 0)"/>
      <use xlink:href="#DejaVuSans-41" transform="translate(280.498047 0)"/>
      <use xlink:href="#DejaVuSans-4c" transform="translate(348.90625 0)"/>
      <use xlink:href="#DejaVuSans-49" transform="translate(404.619141 0)"/>
      <use xlink:href="#DejaVuSans-53" transform="translate(434.111328 0)"/>
      <use xlink:href="#DejaVuSans-4d" transform="translate(497.587891 0)"/>
      <use xlink:href="#DejaVuSans-20" transform="translate(583.867188 0)"/>
      <use xlink:href="#DejaVuSans-28" transform="translate(615.654297 0)"/>
      <use xlink:href="#DejaVuSans-35" transform="translate(654.667969 0)"/>
      <use xlink:href="#DejaVuSans-2e" transform="translate(718.291016 0)"/>
      <use xlink:href="#DejaVuSans-39" transform="translate(750.078125 0)"/>
      <use xlink:href="#DejaVuSans-25" transform="translate(813.701172 0)"/>
      <use xlink:href="#DejaVuSans-29" transform="translate(908.720703 0)"/>
     </g>
    </g>
    <g id="patch_33">
     <path d="M 502.6 123.351562 
L 522.6 123.351562 
L 522.6 116.351562 
L 502.6 116.351562 
z
" style="fill: #fd8d3c; stroke: #ffffff; stroke-width: 0.5; stroke-linejoin: miter"/>
    </g>
    <g id="text_8">
     <!-- WARRANTS (5.7%) -->
     <g transform="translate(530.6 123.351562) scale(0.1 -0.1)">
      <defs>
       <path id="DejaVuSans-57" d="M 213 4666 
L 850 4666 
L 1831 722 
L 2809 4666 
L 3519 4666 
L 4500 722 
L 5478 4666 
L 6119 4666 
L 4947 0 
L 4153 0 
L 3169 4050 
L 2175 0 
L 1381 0 
L 213 4666 
z
" transform="scale(0.015625)"/>
      </defs>
      <use xlink:href="#DejaVuSans-57"/>
      <use xlink:href="#DejaVuSans-41" transform="translate(93.376953 0)"/>
      <use xlink:href="#DejaVuSans-52" transform="translate(161.785156 0)"/>
      <use xlink:href="#DejaVuSans-52" transform="translate(231.267578 0)"/>
      <use xlink:href="#DejaVuSans-41" transform="translate(296.75 0)"/>
      <use xlink:href="#DejaVuSans-4e" transform="translate(365.158203 0)"/>
      <use xlink:href="#DejaVuSans-54" transform="translate(439.962891 0)"/>
      <use xlink:href="#DejaVuSans-53" transform="translate(501.046875 0)"/>
      <use xlink:href="#DejaVuSans-20" transform="translate(564.523438 0)"/>
      <use xlink:href="#DejaVuSans-28" transform="translate(596.310547 0)"/>
      <use xlink:href="#DejaVuSans-35" transform="translate(635.324219 0)"/>
      <use xlink:href="#DejaVuSans-2e" transform="translate(698.947266 0)"/>
      <use xlink:href="#DejaVuSans-37" transform="translate(730.734375 0)"/>
      <use xlink:href="#DejaVuSans-25" transform="translate(794.357422 0)"/>
      <use xlink:href="#DejaVuSans-29" transform="translate(889.376953 0)"/>
     </g>
    </g>
    <g id="patch_34">
     <path d="M 502.6 138.029687 
L 522.6 138.029687 
L 522.6 131.029687 
L 502.6 131.029687 
z
" style="fill: #fdae6b; stroke: #ffffff; stroke-width: 0.5; stroke-linejoin: miter"/>
    </g>
    <g id="text_9">
     <!-- DRUG/NARCOTIC (5.3%) -->
     <g transform="translate(530.6 138.029687) scale(0.1 -0.1)">
      <defs>
       <path id="DejaVuSans-55" d="M 556 4666 
L 1191 4666 
L 1191 1831 
Q 1191 1081 1462 751 
Q 1734 422 2344 422 
Q 2950 422 3222 751 
Q 3494 1081 3494 1831 
L 3494 4666 
L 4128 4666 
L 4128 1753 
Q 4128 841 3676 375 
Q 3225 -91 2344 -91 
Q 1459 -91 1007 375 
Q 556 841 556 1753 
L 556 4666 
z
" transform="scale(0.015625)"/>
       <path id="DejaVuSans-47" d="M 3809 666 
L 3809 1919 
L 2778 1919 
L 2778 2438 
L 4434 2438 
L 4434 434 
Q 4069 175 3628 42 
Q 3188 -91 2688 -91 
Q 1594 -91 976 548 
Q 359 1188 359 2328 
Q 359 3472 976 4111 
Q 1594 4750 2688 4750 
Q 3144 4750 3555 4637 
Q 3966 4525 4313 4306 
L 4313 3634 
Q 3963 3931 3569 4081 
Q 3175 4231 2741 4231 
Q 1884 4231 1454 3753 
Q 1025 3275 1025 2328 
Q 1025 1384 1454 906 
Q 1884 428 2741 428 
Q 3075 428 3337 486 
Q 3600 544 3809 666 
z
" transform="scale(0.015625)"/>
      </defs>
      <use xlink:href="#DejaVuSans-44"/>
      <use xlink:href="#DejaVuSans-52" transform="translate(77.001953 0)"/>
      <use xlink:href="#DejaVuSans-55" transform="translate(146.484375 0)"/>
      <use xlink:href="#DejaVuSans-47" transform="translate(219.677734 0)"/>
      <use xlink:href="#DejaVuSans-2f" transform="translate(297.167969 0)"/>
      <use xlink:href="#DejaVuSans-4e" transform="translate(330.859375 0)"/>
      <use xlink:href="#DejaVuSans-41" transform="translate(405.664062 0)"/>
      <use xlink:href="#DejaVuSans-52" transform="translate(474.072266 0)"/>
      <use xlink:href="#DejaVuSans-43" transform="translate(538.554688 0)"/>
      <use xlink:href="#DejaVuSans-4f" transform="translate(608.378906 0)"/>
      <use xlink:href="#DejaVuSans-54" transform="translate(687.089844 0)"/>
      <use xlink:href="#DejaVuSans-49" transform="translate(748.173828 0)"/>
      <use xlink:href="#DejaVuSans-43" transform="translate(777.666016 0)"/>
      <use xlink:href="#DejaVuSans-20" transform="translate(847.490234 0)"/>
      <use xlink:href="#DejaVuSans-28" transform="translate(879.277344 0)"/>
      <use xlink:href="#DejaVuSans-35" transform="translate(918.291016 0)"/>
      <use xlink:href="#DejaVuSans-2e" transform="translate(981.914062 0)"/>
      <use xlink:href="#DejaVuSans-33" transform="translate(1013.701172 0)"/>
      <use xlink:href="#DejaVuSans-25" transform="translate(1077.324219 0)"/>
      <use xlink:href="#DejaVuSans-29" transform="translate(1172.34375 0)"/>
     </g>
    </g>
    <g id="patch_35">
     <path d="M 502.6 152.707812 
L 522.6 152.707812 
L 522.6 145.707812 
L 502.6 145.707812 
z
" style="fill: #fdd0a2; stroke: #ffffff; stroke-width: 0.5; stroke-linejoin: miter"/>
    </g>
    <g id="text_10">
     <!-- BURGLARY (4.9%) -->
     <g transform="translate(530.6 152.707812) scale(0.1 -0.1)">
      <defs>
       <path id="DejaVuSans-42" d="M 1259 2228 
L 1259 519 
L 2272 519 
Q 2781 519 3026 730 
Q 3272 941 3272 1375 
Q 3272 1813 3026 2020 
Q 2781 2228 2272 2228 
L 1259 2228 
z
M 1259 4147 
L 1259 2741 
L 2194 2741 
Q 2656 2741 2882 2914 
Q 3109 3088 3109 3444 
Q 3109 3797 2882 3972 
Q 2656 4147 2194 4147 
L 1259 4147 
z
M 628 4666 
L 2241 4666 
Q 2963 4666 3353 4366 
Q 3744 4066 3744 3513 
Q 3744 3084 3544 2831 
Q 3344 2578 2956 2516 
Q 3422 2416 3680 2098 
Q 3938 1781 3938 1306 
Q 3938 681 3513 340 
Q 3088 0 2303 0 
L 628 0 
L 628 4666 
z
" transform="scale(0.015625)"/>
      </defs>
      <use xlink:href="#DejaVuSans-42"/>
      <use xlink:href="#DejaVuSans-55" transform="translate(68.603516 0)"/>
      <use xlink:href="#DejaVuSans-52" transform="translate(141.796875 0)"/>
      <use xlink:href="#DejaVuSans-47" transform="translate(211.279297 0)"/>
      <use xlink:href="#DejaVuSans-4c" transform="translate(288.769531 0)"/>
      <use xlink:href="#DejaVuSans-41" transform="translate(346.732422 0)"/>
      <use xlink:href="#DejaVuSans-52" transform="translate(415.140625 0)"/>
      <use xlink:href="#DejaVuSans-59" transform="translate(478.248047 0)"/>
      <use xlink:href="#DejaVuSans-20" transform="translate(539.332031 0)"/>
      <use xlink:href="#DejaVuSans-28" transform="translate(571.119141 0)"/>
      <use xlink:href="#DejaVuSans-34" transform="translate(610.132812 0)"/>
      <use xlink:href="#DejaVuSans-2e" transform="translate(673.755859 0)"/>
      <use xlink:href="#DejaVuSans-39" transform="translate(705.542969 0)"/>
      <use xlink:href="#DejaVuSans-25" transform="translate(769.166016 0)"/>
      <use xlink:href="#DejaVuSans-29" transform="translate(864.185547 0)"/>
     </g>
    </g>
    <g id="patch_36">
     <path d="M 502.6 167.385937 
L 522.6 167.385937 
L 522.6 160.385937 
L 502.6 160.385937 
z
" style="fill: #31a354; stroke: #ffffff; stroke-width: 0.5; stroke-linejoin: miter"/>
    </g>
    <g id="text_11">
     <!-- SUSPICIOUS OCC (4.2%) -->
     <g transform="translate(530.6 167.385937) scale(0.1 -0.1)">
      <use xlink:href="#DejaVuSans-53"/>
      <use xlink:href="#DejaVuSans-55" transform="translate(63.476562 0)"/>
      <use xlink:href="#DejaVuSans-53" transform="translate(136.669922 0)"/>
      <use xlink:href="#DejaVuSans-50" transform="translate(200.146484 0)"/>
      <use xlink:href="#DejaVuSans-49" transform="translate(260.449219 0)"/>
      <use xlink:href="#DejaVuSans-43" transform="translate(289.941406 0)"/>
      <use xlink:href="#DejaVuSans-49" transform="translate(359.765625 0)"/>
      <use xlink:href="#DejaVuSans-4f" transform="translate(389.257812 0)"/>
      <use xlink:href="#DejaVuSans-55" transform="translate(467.96875 0)"/>
      <use xlink:href="#DejaVuSans-53" transform="translate(541.162109 0)"/>
      <use xlink:href="#DejaVuSans-20" transform="translate(604.638672 0)"/>
      <use xlink:href="#DejaVuSans-4f" transform="translate(636.425781 0)"/>
      <use xlink:href="#DejaVuSans-43" transform="translate(715.136719 0)"/>
      <use xlink:href="#DejaVuSans-43" transform="translate(784.960938 0)"/>
      <use xlink:href="#DejaVuSans-20" transform="translate(854.785156 0)"/>
      <use xlink:href="#DejaVuSans-28" transform="translate(886.572266 0)"/>
      <use xlink:href="#DejaVuSans-34" transform="translate(925.585938 0)"/>
      <use xlink:href="#DejaVuSans-2e" transform="translate(989.208984 0)"/>
      <use xlink:href="#DejaVuSans-32" transform="translate(1020.996094 0)"/>
      <use xlink:href="#DejaVuSans-25" transform="translate(1084.619141 0)"/>
      <use xlink:href="#DejaVuSans-29" transform="translate(1179.638672 0)"/>
     </g>
    </g>
    <g id="patch_37">
     <path d="M 502.6 182.064062 
L 522.6 182.064062 
L 522.6 175.064062 
L 502.6 175.064062 
z
" style="fill: #74c476; stroke: #ffffff; stroke-width: 0.5; stroke-linejoin: miter"/>
    </g>
    <g id="text_12">
     <!-- MISSING PERSON (3.4%) -->
     <g transform="translate(530.6 182.064062) scale(0.1 -0.1)">
      <use xlink:href="#DejaVuSans-4d"/>
      <use xlink:href="#DejaVuSans-49" transform="translate(86.279297 0)"/>
      <use xlink:href="#DejaVuSans-53" transform="translate(115.771484 0)"/>
      <use xlink:href="#DejaVuSans-53" transform="translate(179.248047 0)"/>
      <use xlink:href="#DejaVuSans-49" transform="translate(242.724609 0)"/>
      <use xlink:href="#DejaVuSans-4e" transform="translate(272.216797 0)"/>
      <use xlink:href="#DejaVuSans-47" transform="translate(347.021484 0)"/>
      <use xlink:href="#DejaVuSans-20" transform="translate(424.511719 0)"/>
      <use xlink:href="#DejaVuSans-50" transform="translate(456.298828 0)"/>
      <use xlink:href="#DejaVuSans-45" transform="translate(516.601562 0)"/>
      <use xlink:href="#DejaVuSans-52" transform="translate(579.785156 0)"/>
      <use xlink:href="#DejaVuSans-53" transform="translate(649.267578 0)"/>
      <use xlink:href="#DejaVuSans-4f" transform="translate(712.744141 0)"/>
      <use xlink:href="#DejaVuSans-4e" transform="translate(791.455078 0)"/>
      <use xlink:href="#DejaVuSans-20" transform="translate(866.259766 0)"/>
      <use xlink:href="#DejaVuSans-28" transform="translate(898.046875 0)"/>
      <use xlink:href="#DejaVuSans-33" transform="translate(937.060547 0)"/>
      <use xlink:href="#DejaVuSans-2e" transform="translate(1000.683594 0)"/>
      <use xlink:href="#DejaVuSans-34" transform="translate(1032.470703 0)"/>
      <use xlink:href="#DejaVuSans-25" transform="translate(1096.09375 0)"/>
      <use xlink:href="#DejaVuSans-29" transform="translate(1191.113281 0)"/>
     </g>
    </g>
    <g id="patch_38">
     <path d="M 502.6 196.742187 
L 522.6 196.742187 
L 522.6 189.742187 
L 502.6 189.742187 
z
" style="fill: #a1d99b; stroke: #ffffff; stroke-width: 0.5; stroke-linejoin: miter"/>
    </g>
    <g id="text_13">
     <!-- ROBBERY (3.1%) -->
     <g transform="translate(530.6 196.742187) scale(0.1 -0.1)">
      <use xlink:href="#DejaVuSans-52"/>
      <use xlink:href="#DejaVuSans-4f" transform="translate(69.482422 0)"/>
      <use xlink:href="#DejaVuSans-42" transform="translate(148.193359 0)"/>
      <use xlink:href="#DejaVuSans-42" transform="translate(216.796875 0)"/>
      <use xlink:href="#DejaVuSans-45" transform="translate(285.400391 0)"/>
      <use xlink:href="#DejaVuSans-52" transform="translate(348.583984 0)"/>
      <use xlink:href="#DejaVuSans-59" transform="translate(411.691406 0)"/>
      <use xlink:href="#DejaVuSans-20" transform="translate(472.775391 0)"/>
      <use xlink:href="#DejaVuSans-28" transform="translate(504.5625 0)"/>
      <use xlink:href="#DejaVuSans-33" transform="translate(543.576172 0)"/>
      <use xlink:href="#DejaVuSans-2e" transform="translate(607.199219 0)"/>
      <use xlink:href="#DejaVuSans-31" transform="translate(638.986328 0)"/>
      <use xlink:href="#DejaVuSans-25" transform="translate(702.609375 0)"/>
      <use xlink:href="#DejaVuSans-29" transform="translate(797.628906 0)"/>
     </g>
    </g>
    <g id="patch_39">
     <path d="M 502.6 211.420312 
L 522.6 211.420312 
L 522.6 204.420312 
L 502.6 204.420312 
z
" style="fill: #c7e9c0; stroke: #ffffff; stroke-width: 0.5; stroke-linejoin: miter"/>
    </g>
    <g id="text_14">
     <!-- FRAUD (2.2%) -->
     <g transform="translate(530.6 211.420312) scale(0.1 -0.1)">
      <use xlink:href="#DejaVuSans-46"/>
      <use xlink:href="#DejaVuSans-52" transform="translate(57.519531 0)"/>
      <use xlink:href="#DejaVuSans-41" transform="translate(123.001953 0)"/>
      <use xlink:href="#DejaVuSans-55" transform="translate(191.410156 0)"/>
      <use xlink:href="#DejaVuSans-44" transform="translate(264.603516 0)"/>
      <use xlink:href="#DejaVuSans-20" transform="translate(341.605469 0)"/>
      <use xlink:href="#DejaVuSans-28" transform="translate(373.392578 0)"/>
      <use xlink:href="#DejaVuSans-32" transform="translate(412.40625 0)"/>
      <use xlink:href="#DejaVuSans-2e" transform="translate(476.029297 0)"/>
      <use xlink:href="#DejaVuSans-32" transform="translate(507.816406 0)"/>
      <use xlink:href="#DejaVuSans-25" transform="translate(571.439453 0)"/>
      <use xlink:href="#DejaVuSans-29" transform="translate(666.458984 0)"/>
     </g>
    </g>
    <g id="patch_40">
     <path d="M 502.6 226.098437 
L 522.6 226.098437 
L 522.6 219.098437 
L 502.6 219.098437 
z
" style="fill: #756bb1; stroke: #ffffff; stroke-width: 0.5; stroke-linejoin: miter"/>
    </g>
    <g id="text_15">
     <!-- FORGERY/COUNTERFEITING (1.3%) -->
     <g transform="translate(530.6 226.098437) scale(0.1 -0.1)">
      <use xlink:href="#DejaVuSans-46"/>
      <use xlink:href="#DejaVuSans-4f" transform="translate(57.519531 0)"/>
      <use xlink:href="#DejaVuSans-52" transform="translate(136.230469 0)"/>
      <use xlink:href="#DejaVuSans-47" transform="translate(205.712891 0)"/>
      <use xlink:href="#DejaVuSans-45" transform="translate(283.203125 0)"/>
      <use xlink:href="#DejaVuSans-52" transform="translate(346.386719 0)"/>
      <use xlink:href="#DejaVuSans-59" transform="translate(409.494141 0)"/>
      <use xlink:href="#DejaVuSans-2f" transform="translate(470.578125 0)"/>
      <use xlink:href="#DejaVuSans-43" transform="translate(504.269531 0)"/>
      <use xlink:href="#DejaVuSans-4f" transform="translate(574.09375 0)"/>
      <use xlink:href="#DejaVuSans-55" transform="translate(652.804688 0)"/>
      <use xlink:href="#DejaVuSans-4e" transform="translate(725.998047 0)"/>
      <use xlink:href="#DejaVuSans-54" transform="translate(800.802734 0)"/>
      <use xlink:href="#DejaVuSans-45" transform="translate(861.886719 0)"/>
      <use xlink:href="#DejaVuSans-52" transform="translate(925.070312 0)"/>
      <use xlink:href="#DejaVuSans-46" transform="translate(994.552734 0)"/>
      <use xlink:href="#DejaVuSans-45" transform="translate(1052.072266 0)"/>
      <use xlink:href="#DejaVuSans-49" transform="translate(1115.255859 0)"/>
      <use xlink:href="#DejaVuSans-54" transform="translate(1144.748047 0)"/>
      <use xlink:href="#DejaVuSans-49" transform="translate(1205.832031 0)"/>
      <use xlink:href="#DejaVuSans-4e" transform="translate(1235.324219 0)"/>
      <use xlink:href="#DejaVuSans-47" transform="translate(1310.128906 0)"/>
      <use xlink:href="#DejaVuSans-20" transform="translate(1387.619141 0)"/>
      <use xlink:href="#DejaVuSans-28" transform="translate(1419.40625 0)"/>
      <use xlink:href="#DejaVuSans-31" transform="translate(1458.419922 0)"/>
      <use xlink:href="#DejaVuSans-2e" transform="translate(1522.042969 0)"/>
      <use xlink:href="#DejaVuSans-33" transform="translate(1553.830078 0)"/>
      <use xlink:href="#DejaVuSans-25" transform="translate(1617.453125 0)"/>
      <use xlink:href="#DejaVuSans-29" transform="translate(1712.472656 0)"/>
     </g>
    </g>
    <g id="patch_41">
     <path d="M 502.6 240.776562 
L 522.6 240.776562 
L 522.6 233.776562 
L 502.6 233.776562 
z
" style="fill: #9e9ac8; stroke: #ffffff; stroke-width: 0.5; stroke-linejoin: miter"/>
    </g>
    <g id="text_16">
     <!-- WEAPON LAWS (1.0%) -->
     <g transform="translate(530.6 240.776562) scale(0.1 -0.1)">
      <defs>
       <path id="DejaVuSans-30" d="M 2034 4250 
Q 1547 4250 1301 3770 
Q 1056 3291 1056 2328 
Q 1056 1369 1301 889 
Q 1547 409 2034 409 
Q 2525 409 2770 889 
Q 3016 1369 3016 2328 
Q 3016 3291 2770 3770 
Q 2525 4250 2034 4250 
z
M 2034 4750 
Q 2819 4750 3233 4129 
Q 3647 3509 3647 2328 
Q 3647 1150 3233 529 
Q 2819 -91 2034 -91 
Q 1250 -91 836 529 
Q 422 1150 422 2328 
Q 422 3509 836 4129 
Q 1250 4750 2034 4750 
z
" transform="scale(0.015625)"/>
      </defs>
      <use xlink:href="#DejaVuSans-57"/>
      <use xlink:href="#DejaVuSans-45" transform="translate(98.876953 0)"/>
      <use xlink:href="#DejaVuSans-41" transform="translate(162.060547 0)"/>
      <use xlink:href="#DejaVuSans-50" transform="translate(230.46875 0)"/>
      <use xlink:href="#DejaVuSans-4f" transform="translate(290.771484 0)"/>
      <use xlink:href="#DejaVuSans-4e" transform="translate(369.482422 0)"/>
      <use xlink:href="#DejaVuSans-20" transform="translate(444.287109 0)"/>
      <use xlink:href="#DejaVuSans-4c" transform="translate(476.074219 0)"/>
      <use xlink:href="#DejaVuSans-41" transform="translate(534.037109 0)"/>
      <use xlink:href="#DejaVuSans-57" transform="translate(596.945312 0)"/>
      <use xlink:href="#DejaVuSans-53" transform="translate(695.822266 0)"/>
      <use xlink:href="#DejaVuSans-20" transform="translate(759.298828 0)"/>
      <use xlink:href="#DejaVuSans-28" transform="translate(791.085938 0)"/>
      <use xlink:href="#DejaVuSans-31" transform="translate(830.099609 0)"/>
      <use xlink:href="#DejaVuSans-2e" transform="translate(893.722656 0)"/>
      <use xlink:href="#DejaVuSans-30" transform="translate(925.509766 0)"/>
      <use xlink:href="#DejaVuSans-25" transform="translate(989.132812 0)"/>
      <use xlink:href="#DejaVuSans-29" transform="translate(1084.152344 0)"/>
     </g>
    </g>
    <g id="patch_42">
     <path d="M 502.6 255.454687 
L 522.6 255.454687 
L 522.6 248.454687 
L 502.6 248.454687 
z
" style="fill: #bcbddc; stroke: #ffffff; stroke-width: 0.5; stroke-linejoin: miter"/>
    </g>
    <g id="text_17">
     <!-- TRESPASS (1.0%) -->
     <g transform="translate(530.6 255.454687) scale(0.1 -0.1)">
      <use xlink:href="#DejaVuSans-54"/>
      <use xlink:href="#DejaVuSans-52" transform="translate(61.083984 0)"/>
      <use xlink:href="#DejaVuSans-45" transform="translate(130.566406 0)"/>
      <use xlink:href="#DejaVuSans-53" transform="translate(193.75 0)"/>
      <use xlink:href="#DejaVuSans-50" transform="translate(257.226562 0)"/>
      <use xlink:href="#DejaVuSans-41" transform="translate(311.154297 0)"/>
      <use xlink:href="#DejaVuSans-53" transform="translate(379.5625 0)"/>
      <use xlink:href="#DejaVuSans-53" transform="translate(443.039062 0)"/>
      <use xlink:href="#DejaVuSans-20" transform="translate(506.515625 0)"/>
      <use xlink:href="#DejaVuSans-28" transform="translate(538.302734 0)"/>
      <use xlink:href="#DejaVuSans-31" transform="translate(577.316406 0)"/>
      <use xlink:href="#DejaVuSans-2e" transform="translate(640.939453 0)"/>
      <use xlink:href="#DejaVuSans-30" transform="translate(672.726562 0)"/>
      <use xlink:href="#DejaVuSans-25" transform="translate(736.349609 0)"/>
      <use xlink:href="#DejaVuSans-29" transform="translate(831.369141 0)"/>
     </g>
    </g>
    <g id="patch_43">
     <path d="M 502.6 270.132812 
L 522.6 270.132812 
L 522.6 263.132812 
L 502.6 263.132812 
z
" style="fill: #dadaeb; stroke: #ffffff; stroke-width: 0.5; stroke-linejoin: miter"/>
    </g>
    <g id="text_18">
     <!-- DISORDERLY CONDUCT (0.6%) -->
     <g transform="translate(530.6 270.132812) scale(0.1 -0.1)">
      <use xlink:href="#DejaVuSans-44"/>
      <use xlink:href="#DejaVuSans-49" transform="translate(77.001953 0)"/>
      <use xlink:href="#DejaVuSans-53" transform="translate(106.494141 0)"/>
      <use xlink:href="#DejaVuSans-4f" transform="translate(169.970703 0)"/>
      <use xlink:href="#DejaVuSans-52" transform="translate(248.681641 0)"/>
      <use xlink:href="#DejaVuSans-44" transform="translate(318.164062 0)"/>
      <use xlink:href="#DejaVuSans-45" transform="translate(395.166016 0)"/>
      <use xlink:href="#DejaVuSans-52" transform="translate(458.349609 0)"/>
      <use xlink:href="#DejaVuSans-4c" transform="translate(527.832031 0)"/>
      <use xlink:href="#DejaVuSans-59" transform="translate(570.294922 0)"/>
      <use xlink:href="#DejaVuSans-20" transform="translate(631.378906 0)"/>
      <use xlink:href="#DejaVuSans-43" transform="translate(663.166016 0)"/>
      <use xlink:href="#DejaVuSans-4f" transform="translate(732.990234 0)"/>
      <use xlink:href="#DejaVuSans-4e" transform="translate(811.701172 0)"/>
      <use xlink:href="#DejaVuSans-44" transform="translate(886.505859 0)"/>
      <use xlink:href="#DejaVuSans-55" transform="translate(963.507812 0)"/>
      <use xlink:href="#DejaVuSans-43" transform="translate(1036.701172 0)"/>
      <use xlink:href="#DejaVuSans-54" transform="translate(1106.525391 0)"/>
      <use xlink:href="#DejaVuSans-20" transform="translate(1167.609375 0)"/>
      <use xlink:href="#DejaVuSans-28" transform="translate(1199.396484 0)"/>
      <use xlink:href="#DejaVuSans-30" transform="translate(1238.410156 0)"/>
      <use xlink:href="#DejaVuSans-2e" transform="translate(1302.033203 0)"/>
      <use xlink:href="#DejaVuSans-36" transform="translate(1333.820312 0)"/>
      <use xlink:href="#DejaVuSans-25" transform="translate(1397.443359 0)"/>
      <use xlink:href="#DejaVuSans-29" transform="translate(1492.462891 0)"/>
     </g>
    </g>
    <g id="patch_44">
     <path d="M 502.6 284.810937 
L 522.6 284.810937 
L 522.6 277.810937 
L 502.6 277.810937 
z
" style="fill: #636363; stroke: #ffffff; stroke-width: 0.5; stroke-linejoin: miter"/>
    </g>
    <g id="text_19">
     <!-- RECOVERED VEHICLE (0.4%) -->
     <g transform="translate(530.6 284.810937) scale(0.1 -0.1)">
      <use xlink:href="#DejaVuSans-52"/>
      <use xlink:href="#DejaVuSans-45" transform="translate(69.482422 0)"/>
      <use xlink:href="#DejaVuSans-43" transform="translate(132.666016 0)"/>
      <use xlink:href="#DejaVuSans-4f" transform="translate(202.490234 0)"/>
      <use xlink:href="#DejaVuSans-56" transform="translate(279.451172 0)"/>
      <use xlink:href="#DejaVuSans-45" transform="translate(347.859375 0)"/>
      <use xlink:href="#DejaVuSans-52" transform="translate(411.042969 0)"/>
      <use xlink:href="#DejaVuSans-45" transform="translate(480.525391 0)"/>
      <use xlink:href="#DejaVuSans-44" transform="translate(543.708984 0)"/>
      <use xlink:href="#DejaVuSans-20" transform="translate(620.710938 0)"/>
      <use xlink:href="#DejaVuSans-56" transform="translate(652.498047 0)"/>
      <use xlink:href="#DejaVuSans-45" transform="translate(720.90625 0)"/>
      <use xlink:href="#DejaVuSans-48" transform="translate(784.089844 0)"/>
      <use xlink:href="#DejaVuSans-49" transform="translate(859.285156 0)"/>
      <use xlink:href="#DejaVuSans-43" transform="translate(888.777344 0)"/>
      <use xlink:href="#DejaVuSans-4c" transform="translate(958.601562 0)"/>
      <use xlink:href="#DejaVuSans-45" transform="translate(1014.314453 0)"/>
      <use xlink:href="#DejaVuSans-20" transform="translate(1077.498047 0)"/>
      <use xlink:href="#DejaVuSans-28" transform="translate(1109.285156 0)"/>
      <use xlink:href="#DejaVuSans-30" transform="translate(1148.298828 0)"/>
      <use xlink:href="#DejaVuSans-2e" transform="translate(1211.921875 0)"/>
      <use xlink:href="#DejaVuSans-34" transform="translate(1243.708984 0)"/>
      <use xlink:href="#DejaVuSans-25" transform="translate(1307.332031 0)"/>
      <use xlink:href="#DejaVuSans-29" transform="translate(1402.351562 0)"/>
     </g>
    </g>
    <g id="patch_45">
     <path d="M 502.6 299.489062 
L 522.6 299.489062 
L 522.6 292.489062 
L 502.6 292.489062 
z
" style="fill: #969696; stroke: #ffffff; stroke-width: 0.5; stroke-linejoin: miter"/>
    </g>
    <g id="text_20">
     <!-- KIDNAPPING (0.3%) -->
     <g transform="translate(530.6 299.489062) scale(0.1 -0.1)">
      <defs>
       <path id="DejaVuSans-4b" d="M 628 4666 
L 1259 4666 
L 1259 2694 
L 3353 4666 
L 4166 4666 
L 1850 2491 
L 4331 0 
L 3500 0 
L 1259 2247 
L 1259 0 
L 628 0 
L 628 4666 
z
" transform="scale(0.015625)"/>
      </defs>
      <use xlink:href="#DejaVuSans-4b"/>
      <use xlink:href="#DejaVuSans-49" transform="translate(65.576172 0)"/>
      <use xlink:href="#DejaVuSans-44" transform="translate(95.068359 0)"/>
      <use xlink:href="#DejaVuSans-4e" transform="translate(172.070312 0)"/>
      <use xlink:href="#DejaVuSans-41" transform="translate(246.875 0)"/>
      <use xlink:href="#DejaVuSans-50" transform="translate(315.283203 0)"/>
      <use xlink:href="#DejaVuSans-50" transform="translate(375.585938 0)"/>
      <use xlink:href="#DejaVuSans-49" transform="translate(435.888672 0)"/>
      <use xlink:href="#DejaVuSans-4e" transform="translate(465.380859 0)"/>
      <use xlink:href="#DejaVuSans-47" transform="translate(540.185547 0)"/>
      <use xlink:href="#DejaVuSans-20" transform="translate(617.675781 0)"/>
      <use xlink:href="#DejaVuSans-28" transform="translate(649.462891 0)"/>
      <use xlink:href="#DejaVuSans-30" transform="translate(688.476562 0)"/>
      <use xlink:href="#DejaVuSans-2e" transform="translate(752.099609 0)"/>
      <use xlink:href="#DejaVuSans-33" transform="translate(783.886719 0)"/>
      <use xlink:href="#DejaVuSans-25" transform="translate(847.509766 0)"/>
      <use xlink:href="#DejaVuSans-29" transform="translate(942.529297 0)"/>
     </g>
    </g>
    <g id="patch_46">
     <path d="M 502.6 314.167187 
L 522.6 314.167187 
L 522.6 307.167187 
L 502.6 307.167187 
z
" style="fill: #bdbdbd; stroke: #ffffff; stroke-width: 0.5; stroke-linejoin: miter"/>
    </g>
    <g id="text_21">
     <!-- STOLEN PROPERTY (0.3%) -->
     <g transform="translate(530.6 314.167187) scale(0.1 -0.1)">
      <use xlink:href="#DejaVuSans-53"/>
      <use xlink:href="#DejaVuSans-54" transform="translate(63.476562 0)"/>
      <use xlink:href="#DejaVuSans-4f" transform="translate(124.560547 0)"/>
      <use xlink:href="#DejaVuSans-4c" transform="translate(203.271484 0)"/>
      <use xlink:href="#DejaVuSans-45" transform="translate(258.984375 0)"/>
      <use xlink:href="#DejaVuSans-4e" transform="translate(322.167969 0)"/>
      <use xlink:href="#DejaVuSans-20" transform="translate(396.972656 0)"/>
      <use xlink:href="#DejaVuSans-50" transform="translate(428.759766 0)"/>
      <use xlink:href="#DejaVuSans-52" transform="translate(489.0625 0)"/>
      <use xlink:href="#DejaVuSans-4f" transform="translate(558.544922 0)"/>
      <use xlink:href="#DejaVuSans-50" transform="translate(637.255859 0)"/>
      <use xlink:href="#DejaVuSans-45" transform="translate(697.558594 0)"/>
      <use xlink:href="#DejaVuSans-52" transform="translate(760.742188 0)"/>
      <use xlink:href="#DejaVuSans-54" transform="translate(822.974609 0)"/>
      <use xlink:href="#DejaVuSans-59" transform="translate(884.058594 0)"/>
      <use xlink:href="#DejaVuSans-20" transform="translate(945.142578 0)"/>
      <use xlink:href="#DejaVuSans-28" transform="translate(976.929688 0)"/>
      <use xlink:href="#DejaVuSans-30" transform="translate(1015.943359 0)"/>
      <use xlink:href="#DejaVuSans-2e" transform="translate(1079.566406 0)"/>
      <use xlink:href="#DejaVuSans-33" transform="translate(1111.353516 0)"/>
      <use xlink:href="#DejaVuSans-25" transform="translate(1174.976562 0)"/>
      <use xlink:href="#DejaVuSans-29" transform="translate(1269.996094 0)"/>
     </g>
    </g>
    <g id="patch_47">
     <path d="M 502.6 328.845312 
L 522.6 328.845312 
L 522.6 321.845312 
L 502.6 321.845312 
z
" style="fill: #d9d9d9; stroke: #ffffff; stroke-width: 0.5; stroke-linejoin: miter"/>
    </g>
    <g id="text_22">
     <!-- RUNAWAY (0.3%) -->
     <g transform="translate(530.6 328.845312) scale(0.1 -0.1)">
      <use xlink:href="#DejaVuSans-52"/>
      <use xlink:href="#DejaVuSans-55" transform="translate(69.482422 0)"/>
      <use xlink:href="#DejaVuSans-4e" transform="translate(142.675781 0)"/>
      <use xlink:href="#DejaVuSans-41" transform="translate(217.480469 0)"/>
      <use xlink:href="#DejaVuSans-57" transform="translate(280.388672 0)"/>
      <use xlink:href="#DejaVuSans-41" transform="translate(373.765625 0)"/>
      <use xlink:href="#DejaVuSans-59" transform="translate(434.423828 0)"/>
      <use xlink:href="#DejaVuSans-20" transform="translate(495.507812 0)"/>
      <use xlink:href="#DejaVuSans-28" transform="translate(527.294922 0)"/>
      <use xlink:href="#DejaVuSans-30" transform="translate(566.308594 0)"/>
      <use xlink:href="#DejaVuSans-2e" transform="translate(629.931641 0)"/>
      <use xlink:href="#DejaVuSans-33" transform="translate(661.71875 0)"/>
      <use xlink:href="#DejaVuSans-25" transform="translate(725.341797 0)"/>
      <use xlink:href="#DejaVuSans-29" transform="translate(820.361328 0)"/>
     </g>
    </g>
    <g id="patch_48">
     <path d="M 502.6 343.523437 
L 522.6 343.523437 
L 522.6 336.523437 
L 502.6 336.523437 
z
" style="fill: #3182bd; stroke: #ffffff; stroke-width: 0.5; stroke-linejoin: miter"/>
    </g>
    <g id="text_23">
     <!-- ARSON (0.2%) -->
     <g transform="translate(530.6 343.523437) scale(0.1 -0.1)">
      <use xlink:href="#DejaVuSans-41"/>
      <use xlink:href="#DejaVuSans-52" transform="translate(68.408203 0)"/>
      <use xlink:href="#DejaVuSans-53" transform="translate(137.890625 0)"/>
      <use xlink:href="#DejaVuSans-4f" transform="translate(201.367188 0)"/>
      <use xlink:href="#DejaVuSans-4e" transform="translate(280.078125 0)"/>
      <use xlink:href="#DejaVuSans-20" transform="translate(354.882812 0)"/>
      <use xlink:href="#DejaVuSans-28" transform="translate(386.669922 0)"/>
      <use xlink:href="#DejaVuSans-30" transform="translate(425.683594 0)"/>
      <use xlink:href="#DejaVuSans-2e" transform="translate(489.306641 0)"/>
      <use xlink:href="#DejaVuSans-32" transform="translate(521.09375 0)"/>
      <use xlink:href="#DejaVuSans-25" transform="translate(584.716797 0)"/>
      <use xlink:href="#DejaVuSans-29" transform="translate(679.736328 0)"/>
     </g>
    </g>
    <g id="patch_49">
     <path d="M 502.6 358.201562 
L 522.6 358.201562 
L 522.6 351.201562 
L 502.6 351.201562 
z
" style="fill: #6baed6; stroke: #ffffff; stroke-width: 0.5; stroke-linejoin: miter"/>
    </g>
    <g id="text_24">
     <!-- EMBEZZLEMENT (0.2%) -->
     <g transform="translate(530.6 358.201562) scale(0.1 -0.1)">
      <defs>
       <path id="DejaVuSans-5a" d="M 359 4666 
L 4025 4666 
L 4025 4184 
L 1075 531 
L 4097 531 
L 4097 0 
L 288 0 
L 288 481 
L 3238 4134 
L 359 4134 
L 359 4666 
z
" transform="scale(0.015625)"/>
      </defs>
      <use xlink:href="#DejaVuSans-45"/>
      <use xlink:href="#DejaVuSans-4d" transform="translate(63.183594 0)"/>
      <use xlink:href="#DejaVuSans-42" transform="translate(149.462891 0)"/>
      <use xlink:href="#DejaVuSans-45" transform="translate(218.066406 0)"/>
      <use xlink:href="#DejaVuSans-5a" transform="translate(281.25 0)"/>
      <use xlink:href="#DejaVuSans-5a" transform="translate(349.755859 0)"/>
      <use xlink:href="#DejaVuSans-4c" transform="translate(418.261719 0)"/>
      <use xlink:href="#DejaVuSans-45" transform="translate(473.974609 0)"/>
      <use xlink:href="#DejaVuSans-4d" transform="translate(537.158203 0)"/>
      <use xlink:href="#DejaVuSans-45" transform="translate(623.4375 0)"/>
      <use xlink:href="#DejaVuSans-4e" transform="translate(686.621094 0)"/>
      <use xlink:href="#DejaVuSans-54" transform="translate(761.425781 0)"/>
      <use xlink:href="#DejaVuSans-20" transform="translate(822.509766 0)"/>
      <use xlink:href="#DejaVuSans-28" transform="translate(854.296875 0)"/>
      <use xlink:href="#DejaVuSans-30" transform="translate(893.310547 0)"/>
      <use xlink:href="#DejaVuSans-2e" transform="translate(956.933594 0)"/>
      <use xlink:href="#DejaVuSans-32" transform="translate(988.720703 0)"/>
      <use xlink:href="#DejaVuSans-25" transform="translate(1052.34375 0)"/>
      <use xlink:href="#DejaVuSans-29" transform="translate(1147.363281 0)"/>
     </g>
    </g>
    <g id="patch_50">
     <path d="M 502.6 372.879687 
L 522.6 372.879687 
L 522.6 365.879687 
L 502.6 365.879687 
z
" style="fill: #9ecae1; stroke: #ffffff; stroke-width: 0.5; stroke-linejoin: miter"/>
    </g>
    <g id="text_25">
     <!-- BAD CHECKS (0.1%) -->
     <g transform="translate(530.6 372.879687) scale(0.1 -0.1)">
      <use xlink:href="#DejaVuSans-42"/>
      <use xlink:href="#DejaVuSans-41" transform="translate(68.603516 0)"/>
      <use xlink:href="#DejaVuSans-44" transform="translate(137.011719 0)"/>
      <use xlink:href="#DejaVuSans-20" transform="translate(214.013672 0)"/>
      <use xlink:href="#DejaVuSans-43" transform="translate(245.800781 0)"/>
      <use xlink:href="#DejaVuSans-48" transform="translate(315.625 0)"/>
      <use xlink:href="#DejaVuSans-45" transform="translate(390.820312 0)"/>
      <use xlink:href="#DejaVuSans-43" transform="translate(454.003906 0)"/>
      <use xlink:href="#DejaVuSans-4b" transform="translate(523.828125 0)"/>
      <use xlink:href="#DejaVuSans-53" transform="translate(589.404297 0)"/>
      <use xlink:href="#DejaVuSans-20" transform="translate(652.880859 0)"/>
      <use xlink:href="#DejaVuSans-28" transform="translate(684.667969 0)"/>
      <use xlink:href="#DejaVuSans-30" transform="translate(723.681641 0)"/>
      <use xlink:href="#DejaVuSans-2e" transform="translate(787.304688 0)"/>
      <use xlink:href="#DejaVuSans-31" transform="translate(819.091797 0)"/>
      <use xlink:href="#DejaVuSans-25" transform="translate(882.714844 0)"/>
      <use xlink:href="#DejaVuSans-29" transform="translate(977.734375 0)"/>
     </g>
    </g>
    <g id="patch_51">
     <path d="M 502.6 387.557813 
L 522.6 387.557813 
L 522.6 380.557813 
L 502.6 380.557813 
z
" style="fill: #c6dbef; stroke: #ffffff; stroke-width: 0.5; stroke-linejoin: miter"/>
    </g>
    <g id="text_26">
     <!-- BRIBERY (0.0%) -->
     <g transform="translate(530.6 387.557813) scale(0.1 -0.1)">
      <use xlink:href="#DejaVuSans-42"/>
      <use xlink:href="#DejaVuSans-52" transform="translate(68.603516 0)"/>
      <use xlink:href="#DejaVuSans-49" transform="translate(138.085938 0)"/>
      <use xlink:href="#DejaVuSans-42" transform="translate(167.578125 0)"/>
      <use xlink:href="#DejaVuSans-45" transform="translate(236.181641 0)"/>
      <use xlink:href="#DejaVuSans-52" transform="translate(299.365234 0)"/>
      <use xlink:href="#DejaVuSans-59" transform="translate(362.472656 0)"/>
      <use xlink:href="#DejaVuSans-20" transform="translate(423.556641 0)"/>
      <use xlink:href="#DejaVuSans-28" transform="translate(455.34375 0)"/>
      <use xlink:href="#DejaVuSans-30" transform="translate(494.357422 0)"/>
      <use xlink:href="#DejaVuSans-2e" transform="translate(557.980469 0)"/>
      <use xlink:href="#DejaVuSans-30" transform="translate(589.767578 0)"/>
      <use xlink:href="#DejaVuSans-25" transform="translate(653.390625 0)"/>
      <use xlink:href="#DejaVuSans-29" transform="translate(748.410156 0)"/>
     </g>
    </g>
    <g id="patch_52">
     <path d="M 502.6 402.235938 
L 522.6 402.235938 
L 522.6 395.235938 
L 502.6 395.235938 
z
" style="fill: #e6550d; stroke: #ffffff; stroke-width: 0.5; stroke-linejoin: miter"/>
    </g>
    <g id="text_27">
     <!-- EXTORTION (0.0%) -->
     <g transform="translate(530.6 402.235938) scale(0.1 -0.1)">
      <defs>
       <path id="DejaVuSans-58" d="M 403 4666 
L 1081 4666 
L 2241 2931 
L 3406 4666 
L 4084 4666 
L 2584 2425 
L 4184 0 
L 3506 0 
L 2194 1984 
L 872 0 
L 191 0 
L 1856 2491 
L 403 4666 
z
" transform="scale(0.015625)"/>
      </defs>
      <use xlink:href="#DejaVuSans-45"/>
      <use xlink:href="#DejaVuSans-58" transform="translate(63.183594 0)"/>
      <use xlink:href="#DejaVuSans-54" transform="translate(129.939453 0)"/>
      <use xlink:href="#DejaVuSans-4f" transform="translate(191.023438 0)"/>
      <use xlink:href="#DejaVuSans-52" transform="translate(269.734375 0)"/>
      <use xlink:href="#DejaVuSans-54" transform="translate(331.966797 0)"/>
      <use xlink:href="#DejaVuSans-49" transform="translate(393.050781 0)"/>
      <use xlink:href="#DejaVuSans-4f" transform="translate(422.542969 0)"/>
      <use xlink:href="#DejaVuSans-4e" transform="translate(501.253906 0)"/>
      <use xlink:href="#DejaVuSans-20" transform="translate(576.058594 0)"/>
      <use xlink:href="#DejaVuSans-28" transform="translate(607.845703 0)"/>
      <use xlink:href="#DejaVuSans-30" transform="translate(646.859375 0)"/>
      <use xlink:href="#DejaVuSans-2e" transform="translate(710.482422 0)"/>
      <use xlink:href="#DejaVuSans-30" transform="translate(742.269531 0)"/>
      <use xlink:href="#DejaVuSans-25" transform="translate(805.892578 0)"/>
      <use xlink:href="#DejaVuSans-29" transform="translate(900.912109 0)"/>
     </g>
    </g>
   </g>
  </g>
 </g>
</svg>
